{"title":"Trance Energy Edition 8 2002 DvdRip","uid":15779774,"size":730564608,"categoryP":"video","categoryS":"music_videos","magnet":"?xt=urn:btih:7b5e5b2a600697da9073a355109784f68c5be6ee&amp;dn=Trance+Energy+Edition+8+2002+DvdRip&amp;tr=udp%3A%2F%2Ftracker.leechers-paradise.org%3A6969&amp;tr=udp%3A%2F%2Fzer0day.ch%3A1337&amp;tr=udp%3A%2F%2Fopen.demonii.com%3A1337&amp;tr=udp%3A%2F%2Ftracker.coppersurfer.tk%3A6969&amp;tr=udp%3A%2F%2Fexodus.desync.com%3A6969","seeders":1,"leechers":0,"uploader":"elton.538","files":1,"time":1473278235,"description":"General\r\nComplete name               : Trance Energy Edition 8 2002 EPiC.avi\r\nFormat                      : AVI\r\nFormat/Info                 : Audio Video Interleave\r\nFile size                   : 697 MiB\r\nDuration                    : 41mn 22s\r\nOverall bit rate mode       : Variable\r\nOverall bit rate            : 2 354 Kbps\r\nMovie name                  : Trance.Energy.2002-DVDivX-EPiC\r\nSubject                     : Trance.Energy.2002-DVDivX-EPiC\r\nWriting application         : Nandub v1.0rc2\r\nWriting library             : Nandub build 1853/release\r\n\r\nVideo\r\nID                          : 0\r\nFormat                      : MPEG-4 Visual\r\nCodec ID                    : DIV3\r\nCodec ID/Hint               : DivX 3 Low\r\nDuration                    : 41mn 22s\r\nBit rate                    : 2 156 Kbps\r\nWidth                       : 640 pixels\r\nHeight                      : 480 pixels\r\nDisplay aspect ratio        : 4:3\r\nFrame rate                  : 25.000 fps\r\nColor space                 : YUV\r\nChroma subsampling          : 4:2:0\r\nBit depth                   : 8 bits\r\nCompression mode            : Lossy\r\nBits/(Pixel*Frame)          : 0.281\r\nStream size                 : 638 MiB (92%)\r\n\r\nAudio\r\nID                          : 1\r\nFormat                      : MPEG Audio\r\nFormat version              : Version 1\r\nFormat profile              : Layer 3\r\nMode                        : Joint stereo\r\nMode extension              : MS Stereo\r\nCodec ID                    : 55\r\nCodec ID/Hint               : MP3\r\nDuration                    : 41mn 22s\r\nBit rate mode               : Variable\r\nBit rate                    : 185 Kbps\r\nChannel(s)                  : 2 channels\r\nSampling rate               : 48.0 KHz\r\nCompression mode            : Lossy\r\nStream size                 : 54.6 MiB (8%)\r\nAlignment                   : Aligned on interleaves\r\nInterleave, duration        : 24 ms (0.60 video frame)\r\nInterleave, preload duratio : 95 ms\r\nWriting library             : LAME3.89 (beta)","torrent":{"xt":"urn:btih:7b5e5b2a600697da9073a355109784f68c5be6ee","amp;dn":"Trance+Energy+Edition+8+2002+DvdRip","amp;tr":["udp%3A%2F%2Ftracker.leechers-paradise.org%3A6969","udp%3A%2F%2Fzer0day.ch%3A1337","udp%3A%2F%2Fopen.demonii.com%3A1337","udp%3A%2F%2Ftracker.coppersurfer.tk%3A6969","udp%3A%2F%2Fexodus.desync.com%3A6969"],"infoHash":"7b5e5b2a600697da9073a355109784f68c5be6ee","infoHashBuffer":{"type":"Buffer","data":[123,94,91,42,96,6,151,218,144,115,163,85,16,151,132,246,140,91,230,238]},"announce":[],"urlList":[]}}